# xmcd
#
# Track frame offsets:
#	150
#	14380
#	27080
#	38772
#	51057
#	64205
#	78067
#	91635
#	103310
#	116210
#	129767
#	144242
#	155117
#	167175
#	180260
#
# Disc length: 2557 seconds
#
# Revision: 3
# Processed by: cddbd v1.5.2PL0 Copyright (c) Steve Scherf et al.
# Submitted via: audiograbber 1.83.01
#
DISCID=b609fb0f
DTITLE=Various-Blues - Living The Blues - Blues Masters [CD02v02)
DYEAR=1997
DGENRE=Blues
TTITLE0=John Lee Hooker - Boogie Chillun
TTITLE1=Ivory Joe Hunter - I Quit My Pretty Mama
TTITLE2=Sonny Boy Williamson - Don't Start Me Talkin'
TTITLE3=Roy Milton - Information Blues
TTITLE4=Percy Mayfield - Please Send Me Someone To Love
TTITLE5=Lonnie Johnson - Tomorrow Night
TTITLE6=Arthur -Big Boy - I'm Gonna Dig Myself A Hole
TTITLE7=Albert King - Crosscut Saw
TTITLE8=Joe Liggins - Little Joe's Boogie
TTITLE9=B.B. King - Rock Me Baby
TTITLE10=Otis Rush - So Many Roads, So Many Trains
TTITLE11=Jimmy Reed - Baby What You Want Me To Do
TTITLE12=Little Milton - All Around The World (Grits Ain't Groceries)
TTITLE13=Tampa Red - Pretty Baby Blues
TTITLE14=Etta James - I'd Rather Go Blind
EXTD=
EXTT0=
EXTT1=
EXTT2=
EXTT3=
EXTT4=
EXTT5=
EXTT6=
EXTT7=
EXTT8=
EXTT9=
EXTT10=
EXTT11=
EXTT12=
EXTT13=
EXTT14=
PLAYORDER=
